<svg width="85" height="86" viewBox="0 0 85 86" fill="none" xmlns="http://www.w3.org/2000/svg">
<g clip-path="url(#clip0_255_367)">
<path d="M42.4998 0L32.2383 10.3823L64.4767 20.7646L74.7383 53.3823L84.9998 43C84.9998 19.2517 65.972 0 42.4998 0Z" fill="#5EB717"/>
<path d="M79.8692 43L42.5 86C65.9721 86 85 66.7483 85 43H79.8692Z" fill="#5EB717"/>
<path d="M64.4767 43L72.1729 53.3823L79.8691 43C79.8691 19.2517 63.1383 0 42.4999 0L32.2383 10.3823L42.4999 20.7646C54.6374 20.7646 64.4767 30.7196 64.4767 43Z" fill="#5EB717"/>
<path d="M42.4996 20.7646V0C26.7702 0 13.0375 8.64637 5.68848 21.4971V31.8807H23.4644C27.2646 25.2355 34.3658 20.7646 42.4996 20.7646Z" fill="#96D068"/>
<path d="M20.5231 43C20.5231 38.9492 21.5943 35.1517 23.4648 31.8807L5.68884 21.4971C2.07147 27.8227 0 35.1664 0 43C0 50.8336 2.07147 58.1774 5.68884 64.5029H23.4648V54.1193C21.5943 50.8483 20.5231 47.0508 20.5231 43Z" fill="#AFDB8B"/>
<path d="M23.4644 54.1193L5.68848 64.5029C9.4267 71.0348 14.7908 76.462 21.2467 80.2442H31.5097V62.2592C28.1714 60.3033 25.3976 57.4968 23.4644 54.1193Z" fill="#C7E6AE"/>
<path d="M64.4768 43C64.4768 55.2803 54.6375 65.2354 42.5 65.2354C38.4963 65.2354 34.7429 64.1517 31.51 62.2592L21.2471 80.2442C27.4991 83.9042 34.7575 86 42.5 86C63.1384 86 79.8692 66.7483 79.8692 43H64.4768Z" fill="#5EB717"/>
</g>
<defs>
<clipPath id="clip0_255_367">
<rect width="85" height="86" fill="white"/>
</clipPath>
</defs>
</svg>
