<svg width="89" height="47" viewBox="0 0 89 47" fill="none" xmlns="http://www.w3.org/2000/svg">
<path d="M88.9386 46.4293H66.8918C66.9049 43.1653 66.226 39.9356 64.8999 36.9531C63.5737 33.9706 61.6305 31.3031 59.1982 29.1264L74.4029 12.5989C79.0144 16.9411 82.6843 22.1846 85.1848 28.0043C87.6853 33.8239 88.963 40.0953 88.9386 46.4293Z" fill="#5EB717"/>
<path d="M74.4178 12.599L59.2131 29.1265C55.2644 25.5858 50.1484 23.6261 44.8447 23.6224V0.81543C55.8431 0.835227 66.4197 5.04956 74.4178 12.599Z" fill="#96D068"/>
<path d="M44.8449 0.815433V23.6224C39.3762 23.633 34.1156 25.7199 30.1268 29.461L15.9561 11.93C23.8752 4.77249 34.1705 0.811488 44.8449 0.815433Z" fill="#AFDB8B"/>
<path d="M30.1263 29.4607C27.7993 31.6297 25.9467 34.2572 24.6854 37.1776C23.4241 40.098 22.7813 43.248 22.7976 46.4291H0.750869C0.710978 39.9318 2.04494 33.4996 4.66527 27.554C7.2856 21.6085 11.1331 16.284 15.9555 11.9297L30.1263 29.4607Z" fill="#C7E6AE"/>
</svg>
