<svg width="85" height="84" viewBox="0 0 85 84" fill="none" xmlns="http://www.w3.org/2000/svg">
<rect x="0.704102" width="20.8521" height="20.8521" fill="#CCE6B7"/>
<rect x="0.704102" y="20.8522" width="20.8521" height="20.8521" fill="#5EB717"/>
<rect x="0.704102" y="41.7041" width="20.8521" height="20.8521" fill="#BFE2A2"/>
<rect x="0.704102" y="62.5563" width="20.8521" height="20.8521" fill="#CCE6B7"/>
<rect x="21.5566" width="20.8521" height="20.8521" fill="#BFE2A2"/>
<rect x="21.5566" y="20.8522" width="20.8521" height="20.8521" fill="#8ECD5D"/>
<rect x="21.5566" y="41.7041" width="20.8521" height="20.8521" fill="#5EB717"/>
<rect x="21.5566" y="62.5563" width="20.8521" height="20.8521" fill="#BFE2A2"/>
<rect x="42.4082" width="20.8521" height="20.8521" fill="#AFDB8B"/>
<rect x="42.4082" y="20.8522" width="20.8521" height="20.8521" fill="#CCE6B7"/>
<rect x="42.4082" y="41.7041" width="20.8521" height="20.8521" fill="#8ECD5D"/>
<rect x="42.4082" y="62.5563" width="20.8521" height="20.8521" fill="#AFDB8B"/>
<rect x="63.2607" width="20.8521" height="20.8521" fill="#CCE6B7"/>
<rect x="63.2607" y="20.8522" width="20.8521" height="20.8521" fill="#AFDB8B"/>
<rect x="63.2607" y="41.7041" width="20.8521" height="20.8521" fill="#BFE2A2"/>
<rect x="63.2607" y="62.5563" width="20.8521" height="20.8521" fill="#CCE6B7"/>
</svg>
