<svg width="76" height="95" viewBox="0 0 76 95" fill="none" xmlns="http://www.w3.org/2000/svg">
<rect y="49.5455" width="12" height="45.4545" fill="#5EB717"/>
<rect x="19" y="70" width="11" height="25" fill="#5EB717"/>
<rect x="37" y="56.3636" width="12" height="38.6364" fill="#5EB717"/>
<rect x="56" y="45" width="11" height="50" fill="#5EB717"/>
<path d="M15 20.3283C16.1102 37.7362 19.6629 69.4951 24.9919 57.2671C31.6532 41.9821 34.9839 -0.0516882 38.3145 12.6858C41.6452 25.4233 44.5 58.9654 48.7823 47.0771C53.0645 35.1887 62.1048 -15.7613 64.4839 8.43998C66.8629 32.6412 70.6694 44.9542 74 36.4625" stroke="#5EB717"/>
<circle cx="15" cy="21" r="3" fill="#5EB717"/>
<circle cx="37" cy="11" r="3" fill="#5EB717"/>
<circle cx="23" cy="60" r="3" fill="#5EB717"/>
<circle cx="47" cy="48" r="3" fill="#5EB717"/>
<circle cx="73" cy="38" r="3" fill="#5EB717"/>
<circle cx="63" cy="3" r="3" fill="#5EB717"/>
</svg>
