<svg width="87" height="87" viewBox="0 0 87 87" fill="none" xmlns="http://www.w3.org/2000/svg">
<g clip-path="url(#clip0_416_72)">
<path d="M37.0488 61.3418H49.9503L43.4992 52.8198L37.0488 61.3418Z" fill="#BFE2A2"/>
<path d="M47.8066 50.0639L53.8336 58.027L56.7083 47.6365L47.8066 50.0639Z" fill="#BFE2A2"/>
<path d="M46.0488 45.2616L54.6133 42.9258L46.0488 35.4327V45.2616Z" fill="#BFE2A2"/>
<path d="M40.9507 21.8847L20.584 39.7053L26.4874 41.3149L40.9507 28.6577V21.8847Z" fill="#8ECD5D"/>
<path d="M30.293 47.6379L33.167 58.0277L39.194 50.0659L30.293 47.6379Z" fill="#BFE2A2"/>
<path d="M46.0488 15.1098L72.319 38.097L84.5142 34.6641L46.0488 0V15.1098Z" fill="#5EB717"/>
<path d="M40.9508 35.4327L32.3877 42.9245L40.9508 45.2596V35.4327Z" fill="#BFE2A2"/>
<path d="M46.0488 28.6577L60.5141 41.3162L66.4169 39.7066L46.0488 21.8847V28.6577Z" fill="#8ECD5D"/>
<path d="M69.2425 86.8301L61.5257 76.6348H25.4737L17.7568 86.8301H69.2425Z" fill="#5EB717"/>
<path d="M14.7042 82.4194L21.9943 72.7883L12.5005 42.7851L0 39.2699L14.7042 82.4194Z" fill="#5EB717"/>
<path d="M74.4996 42.7845L65.0059 72.7876L72.2959 82.4187L87.0001 39.2692L74.4996 42.7845Z" fill="#5EB717"/>
<path d="M25.7644 67.8074L29.2943 63.1439L24.5737 46.078L18.3496 44.3808L25.7644 67.8074Z" fill="#8ECD5D"/>
<path d="M29.332 71.5371H57.6672L53.8087 66.4395H33.1905L29.332 71.5371Z" fill="#8ECD5D"/>
<path d="M14.6822 38.0957L40.9511 15.1098V0L2.48633 34.6641L14.6822 38.0957Z" fill="#5EB717"/>
<path d="M62.4274 46.0767L57.7061 63.1432L61.2359 67.8068L68.6507 44.3795L62.4274 46.0767Z" fill="#8ECD5D"/>
</g>
<defs>
<clipPath id="clip0_416_72">
<rect width="87" height="87" fill="white"/>
</clipPath>
</defs>
</svg>
