<svg width="88" height="84" viewBox="0 0 88 84" fill="none" xmlns="http://www.w3.org/2000/svg">
<path d="M18.2532 23.0462C15.3365 23.047 12.9719 25.4117 12.9727 28.3283C12.9727 31.2449 15.3373 33.6096 18.254 33.6096C21.1714 33.6088 23.5353 31.2449 23.5353 28.3275C23.5321 25.4117 21.169 23.0486 18.2532 23.0462Z" fill="#5EB717"/>
<path d="M6.79102 50.9854C6.79102 53.9028 9.15571 56.2675 12.0731 56.2675C14.9898 56.2675 17.3545 53.9028 17.3545 50.9854C17.3545 48.0688 14.9898 45.7041 12.0731 45.7041C9.15731 45.7073 6.79504 48.0704 6.79102 50.9854Z" fill="#5EB717"/>
<path d="M20.8525 42.3516C20.8525 45.2691 23.2172 47.6338 26.1347 47.6338C29.0513 47.6338 31.416 45.2691 31.416 42.3516C31.416 39.435 29.0513 37.0703 26.1347 37.0703C23.2188 37.0735 20.8566 39.4366 20.8525 42.3516Z" fill="#5EB717"/>
<path d="M24.8604 72.9099C24.8604 75.8273 27.225 78.192 30.1425 78.192C33.0591 78.192 35.4238 75.8273 35.4238 72.9099C35.4238 69.9932 33.0591 67.6285 30.1425 67.6285C27.2266 67.6318 24.8644 69.9948 24.8604 72.9099Z" fill="#5EB717"/>
<path d="M41.8066 57.1639C41.8066 60.0813 44.1713 62.446 47.0888 62.446C50.0054 62.446 52.3701 60.0813 52.3701 57.1639C52.3701 54.2473 50.0054 51.8826 47.0888 51.8826C44.1729 51.8858 41.8107 54.2489 41.8066 57.1639Z" fill="#5EB717"/>
<path d="M76.458 42.3516C76.458 45.2691 78.8227 47.6338 81.7401 47.6338C84.6568 47.6338 87.0215 45.2691 87.0215 42.3516C87.0215 39.435 84.6568 37.0703 81.7401 37.0703C78.8243 37.0735 76.462 39.4366 76.458 42.3516Z" fill="#5EB717"/>
<path d="M39.1575 22.5428C36.2408 22.5437 33.8761 24.9083 33.877 27.825C33.877 30.7416 36.2416 33.1063 39.1583 33.1063C42.0757 33.1055 44.4396 30.7416 44.4396 27.8242C44.4364 24.9083 42.0733 22.5453 39.1575 22.5428Z" fill="#5EB717"/>
<path d="M33.0833 2.31706C30.1666 2.31787 27.8019 4.68256 27.8027 7.59919C27.8027 10.5158 30.1674 12.8805 33.0841 12.8805C36.0015 12.8797 38.3654 10.5158 38.3654 7.59839C38.3622 4.68256 35.9991 2.31948 33.0833 2.31706Z" fill="#5EB717"/>
<path d="M51.6184 11.5846C48.7018 11.5854 46.3371 13.9501 46.3379 16.8668C46.3379 19.7834 48.7026 22.1481 51.6192 22.1481C54.5367 22.1473 56.9005 19.7834 56.9005 16.866C56.8973 13.9501 54.5342 11.5871 51.6184 11.5846Z" fill="#5EB717"/>
<path d="M71.8056 33.6096C74.7222 33.6096 77.0869 31.2449 77.0869 28.3275C77.0869 25.4109 74.7222 23.0462 71.8056 23.0462C68.8881 23.0462 66.5234 25.4109 66.5234 28.3275C66.5275 31.2433 68.8897 33.6064 71.8056 33.6096Z" fill="#5EB717"/>
<path d="M66.2092 0C63.2926 0.00080459 60.9279 2.36549 60.9287 5.28213C60.9287 8.19877 63.2934 10.5635 66.21 10.5635C69.1275 10.5627 71.4914 8.19877 71.4914 5.28133C71.4881 2.36549 69.1251 0.00241378 66.2092 0Z" fill="#5EB717"/>
<path d="M55.6055 44.6687C55.6055 47.5861 57.9702 49.9508 60.8876 49.9508C63.8042 49.9508 66.1689 47.5861 66.1689 44.6687C66.1689 41.7521 63.8042 39.3874 60.8876 39.3874C57.9718 39.3906 55.6095 41.7537 55.6055 44.6687Z" fill="#5EB717"/>
<path d="M41.7041 77.1052C41.7041 80.0227 44.0688 82.3873 46.9862 82.3873C49.9029 82.3873 52.2676 80.0227 52.2676 77.1052C52.2676 74.1886 49.9029 71.8239 46.9862 71.8239C44.0704 71.8271 41.7081 74.1902 41.7041 77.1052Z" fill="#5EB717"/>
<path d="M5.28213 71.4292C8.19877 71.4292 10.5635 69.0645 10.5635 66.147C10.5635 63.2304 8.19877 60.8657 5.28213 60.8657C2.36469 60.8657 0 63.2304 0 66.147C0.0040229 69.0629 2.3663 71.4259 5.28213 71.4292Z" fill="#5EB717"/>
<line x1="6.11809" y1="82.7014" x2="80.5094" y2="8.31012" stroke="#5EB717" stroke-width="2"/>
</svg>
