<svg width="84" height="83" viewBox="0 0 84 83" fill="none" xmlns="http://www.w3.org/2000/svg">
<path d="M21.161 18.9595C18.1421 18.9603 15.6945 21.3788 15.6953 24.3617C15.6953 27.3447 18.1429 29.7632 21.1618 29.7632C24.1816 29.7624 26.6284 27.3447 26.6284 24.3609C26.625 21.3788 24.1791 18.9619 21.161 18.9595Z" fill="#5EB717"/>
<path d="M9.29785 47.5334C9.29785 50.5172 11.7455 52.9357 14.7652 52.9357C17.7841 52.9357 20.2317 50.5172 20.2317 47.5334C20.2317 44.5504 17.7841 42.132 14.7652 42.132C11.7471 42.1352 9.30202 44.5521 9.29785 47.5334Z" fill="#5EB717"/>
<path d="M28.4854 39.107C28.4854 42.0908 30.933 44.5093 33.9527 44.5093C36.9716 44.5093 39.4192 42.0908 39.4192 39.107C39.4192 36.124 36.9716 33.7056 33.9527 33.7056C30.9346 33.7089 28.4895 36.1257 28.4854 39.107Z" fill="#5EB717"/>
<path d="M42 53.8181C42 56.8019 44.4476 59.2204 47.4674 59.2204C50.4863 59.2204 52.9339 56.8019 52.9339 53.8181C52.9339 50.8351 50.4863 48.4167 47.4674 48.4167C44.4493 48.4199 42.0042 50.8368 42 53.8181Z" fill="#5EB717"/>
<path d="M58.333 65.3459C58.333 68.3297 60.7806 70.7482 63.8004 70.7482C66.8193 70.7482 69.2669 68.3297 69.2669 65.3459C69.2669 62.3629 66.8193 59.9445 63.8004 59.9445C60.7823 59.9477 58.3372 62.3646 58.333 65.3459Z" fill="#5EB717"/>
<path d="M49.8047 34.8938C49.8047 37.8776 52.2523 40.2961 55.272 40.2961C58.291 40.2961 60.7386 37.8776 60.7386 34.8938C60.7386 31.9108 58.291 29.4924 55.272 29.4924C52.254 29.4957 49.8089 31.9125 49.8047 34.8938Z" fill="#5EB717"/>
<path d="M42.4803 12.6396C39.4614 12.6404 37.0138 15.0589 37.0146 18.0419C37.0146 21.0248 39.4623 23.4433 42.4812 23.4433C45.5009 23.4425 47.9477 21.0248 47.9477 18.041C47.9444 15.0589 45.4984 12.6421 42.4803 12.6396Z" fill="#5EB717"/>
<path d="M60.1757 6.95178C57.1567 6.95261 54.7091 9.37108 54.71 12.3541C54.71 15.337 57.1576 17.7555 60.1765 17.7555C63.1962 17.7547 65.643 15.337 65.643 12.3532C65.6397 9.37108 63.1937 6.95425 60.1757 6.95178Z" fill="#5EB717"/>
<path d="M76.5924 29.7631C79.6113 29.7631 82.0589 27.3446 82.0589 24.3608C82.0589 21.3779 79.6113 18.9594 76.5924 18.9594C73.5726 18.9594 71.125 21.3779 71.125 24.3608C71.1292 27.343 73.5743 29.7598 76.5924 29.7631Z" fill="#5EB717"/>
<path d="M17.1327 71.4722C14.1138 71.4731 11.6662 73.8915 11.667 76.8745C11.667 79.8575 14.1146 82.276 17.1335 82.276C20.1533 82.2751 22.6 79.8575 22.6 76.8737C22.5967 73.8915 20.1508 71.4747 17.1327 71.4722Z" fill="#5EB717"/>
<path d="M66.8613 45.4268C66.8613 48.4106 69.3089 50.8291 72.3287 50.8291C75.3476 50.8291 77.7952 48.4106 77.7952 45.4268C77.7952 42.4438 75.3476 40.0254 72.3287 40.0254C69.3106 40.0287 66.8655 42.4455 66.8613 45.4268Z" fill="#5EB717"/>
<path d="M42 72.2626C42 75.2464 44.4476 77.6648 47.4674 77.6648C50.4863 77.6648 52.9339 75.2464 52.9339 72.2626C52.9339 69.2796 50.4863 66.8611 47.4674 66.8611C44.4493 66.8644 42.0042 69.2812 42 72.2626Z" fill="#5EB717"/>
<path d="M26.4674 66.1371C29.4863 66.1371 31.9339 63.7186 31.9339 60.7348C31.9339 57.7518 29.4863 55.3333 26.4674 55.3333C23.4476 55.3333 21 57.7518 21 60.7348C21.0042 63.7169 23.4493 66.1338 26.4674 66.1371Z" fill="#5EB717"/>
</svg>
