<svg width="83" height="83" viewBox="0 0 83 83" fill="none" xmlns="http://www.w3.org/2000/svg">
<path d="M22.0469 26.9102H39.0684V36.6367H22.0469V26.9102Z" fill="#8ECD5D"/>
<path d="M0 2.43164H83V22.0469H0V2.43164Z" fill="#5EB717"/>
<path d="M0 26.9102H17.1836V36.6367H0V26.9102Z" fill="#8ECD5D"/>
<path d="M0 41.5H17.1836V51.2266H0V41.5Z" fill="#AFDB8B"/>
<path d="M43.9316 26.9102H60.9531V36.6367H43.9316V26.9102Z" fill="#8ECD5D"/>
<path d="M0 56.0898H17.1836V65.8164H0V56.0898Z" fill="#BFE2A2"/>
<path d="M22.0469 41.5H39.0684V51.2266H22.0469V41.5Z" fill="#AFDB8B"/>
<path d="M43.9316 41.5H60.9531V51.2266H43.9316V41.5Z" fill="#AFDB8B"/>
<path d="M0 70.6797H17.1836V80.5684H0V70.6797Z" fill="#DBF2CA"/>
<path d="M65.8164 41.5H83V51.2266H65.8164V41.5Z" fill="#AFDB8B"/>
<path d="M65.8164 26.9102H83V36.6367H65.8164V26.9102Z" fill="#8ECD5D"/>
<path d="M65.8164 56.0898H83V65.8164H65.8164V56.0898Z" fill="#BFE2A2"/>
<path d="M22.0469 56.0898H39.0684V65.8164H22.0469V56.0898Z" fill="#BFE2A2"/>
<path d="M65.8164 70.6797H83V80.5684H65.8164V70.6797Z" fill="#DBF2CA"/>
<path d="M43.9316 56.0898H60.9531V65.8164H43.9316V56.0898Z" fill="#BFE2A2"/>
<path d="M22.0469 70.6797H39.0684V80.5684H22.0469V70.6797Z" fill="#DBF2CA"/>
<path d="M43.9316 70.6797H60.9531V80.5684H43.9316V70.6797Z" fill="#DBF2CA"/>
</svg>
