<svg width="35" height="35" viewBox="0 0 35 35" fill="none" xmlns="http://www.w3.org/2000/svg">
<path d="M2 0C0.89543 0 0 0.895431 0 2V33C0 34.1046 0.895431 35 2 35H13.4568C13.9088 35 14.3474 34.8469 14.7012 34.5657L16.2556 33.3303C16.9842 32.7513 18.0158 32.7513 18.7444 33.3303L20.2988 34.5657C20.6526 34.8469 21.0912 35 21.5432 35H33C34.1046 35 35 34.1046 35 33V2C35 0.89543 34.1046 0 33 0H2ZM17.5034 30.2077C17.5011 30.2077 17.499 30.2072 17.497 30.2063L8.93486 26.2098C8.23079 25.8812 7.78077 25.1745 7.78077 24.3975V12.2038C7.78077 11.0993 8.6762 10.2038 9.78077 10.2038H25.1673C26.2685 10.2038 27.1625 11.094 27.1673 12.1951L27.2204 24.3914C27.2238 25.1716 26.7732 25.8825 26.0663 26.2124L17.5098 30.2063C17.5078 30.2072 17.5056 30.2077 17.5034 30.2077Z" fill="#FFFFFF"/>
</svg>
